<svg width="168" height="168" viewBox="0 0 168 168" fill="none" xmlns="http://www.w3.org/2000/svg">
<g clip-path="url(#clip0_24088_140500)">
<rect opacity="0.0229128" x="0.840582" y="0.840582" width="166.435" height="166.435" stroke="#2B2B2B" stroke-width="1.68116"/>
<g clip-path="url(#clip1_24088_140500)">
<path fill-rule="evenodd" clip-rule="evenodd" d="M27.2064 80.6012C14.1263 80.6012 3.48047 91.4136 3.48047 104.708C3.48047 117.994 14.1263 128.81 27.2064 128.81H130.363C146.786 128.81 160.141 115.235 160.141 98.5487C160.141 81.8628 146.786 68.2874 130.363 68.2874C127.307 68.2874 124.269 68.7672 121.341 69.7061L119.433 70.3225L118.759 68.4032C112.455 50.3937 95.6043 38.2949 76.8333 38.2949C53.8846 38.2949 34.8381 55.7667 32.5272 78.9343L32.3134 81.081L30.2081 80.8163C29.0403 80.6674 28.0863 80.6012 27.2064 80.6012Z" fill="#EDF3F9"/>
</g>
</g>
<defs>
<clipPath id="clip0_24088_140500">
<rect width="167.105" height="167.105" fill="white"/>
</clipPath>
<clipPath id="clip1_24088_140500">
<rect width="167.105" height="90.5151" fill="white" transform="translate(0 38.2949)"/>
</clipPath>
</defs>
</svg>
