<svg width="168" height="168" viewBox="0 0 168 168" fill="none" xmlns="http://www.w3.org/2000/svg">
<g clip-path="url(#clip0_24088_140493)">
<rect opacity="0.0229128" x="0.840582" y="0.840582" width="166.435" height="166.435" stroke="#2B2B2B" stroke-width="1.68116"/>
<g clip-path="url(#clip1_24088_140493)">
<path fill-rule="evenodd" clip-rule="evenodd" d="M143.527 114.891H24.9851C22.9955 114.891 21.3848 113.257 21.3848 111.24C21.3848 109.223 22.9955 107.59 24.9851 107.59H143.527C145.517 107.59 147.127 109.223 147.127 111.24C147.127 113.257 145.517 114.891 143.527 114.891Z" fill="#C8D0D6"/>
<path fill-rule="evenodd" clip-rule="evenodd" d="M143.527 132.229H24.9851C22.9955 132.229 21.3848 130.596 21.3848 128.579C21.3848 126.562 22.9955 124.928 24.9851 124.928H143.527C145.517 124.928 147.127 126.562 147.127 128.579C147.127 130.596 145.517 132.229 143.527 132.229Z" fill="#C8D0D6"/>
<path fill-rule="evenodd" clip-rule="evenodd" d="M103.383 148.648H24.9851C22.9955 148.648 21.3848 147.015 21.3848 144.998C21.3848 142.981 22.9955 141.347 24.9851 141.347H103.383C105.373 141.347 106.983 142.981 106.983 144.998C106.983 147.015 105.373 148.648 103.383 148.648Z" fill="#C8D0D6"/>
<path fill-rule="evenodd" clip-rule="evenodd" d="M35.1433 53.5673C23.445 53.5673 13.9238 63.3144 13.9238 75.2988C13.9238 87.2757 23.445 97.0266 35.1433 97.0266H127.402C142.09 97.0266 154.035 84.7886 154.035 69.7466C154.035 54.7046 142.09 42.4666 127.402 42.4666C124.67 42.4666 121.952 42.8991 119.333 43.7456L117.627 44.3012L117.024 42.571C111.386 26.3357 96.3156 15.429 79.5276 15.429C59.0032 15.429 41.9688 31.1795 39.902 52.0646L39.7108 53.9998L37.8279 53.7612C36.7835 53.6269 35.9303 53.5673 35.1433 53.5673Z" fill="#EDF3F9"/>
</g>
</g>
<defs>
<clipPath id="clip0_24088_140493">
<rect width="167.105" height="167.105" fill="white"/>
</clipPath>
<clipPath id="clip1_24088_140493">
<rect width="141.218" height="136.174" fill="white" transform="translate(13.9238 13.9255)"/>
</clipPath>
</defs>
</svg>
