<svg width="168" height="168" viewBox="0 0 168 168" fill="none" xmlns="http://www.w3.org/2000/svg">
<g clip-path="url(#clip0_24088_140377)">
<rect opacity="0.0229128" x="0.838629" y="0.840582" width="164.771" height="166.435" stroke="#2B2B2B" stroke-width="1.68116"/>
<g clip-path="url(#clip1_24088_140377)">
<path fill-rule="evenodd" clip-rule="evenodd" d="M120.23 114.464C122.671 114.419 124.151 117.131 122.735 119.135C116.573 127.853 99.8118 144.641 63.4125 141.551C63.4125 141.551 11.1154 135.042 8.85873 75.7333C8.85873 75.7333 6.75603 41.1736 39.8736 20.698C42.2879 19.2079 45.2805 21.4317 44.5934 24.1963C38.826 47.4479 30.0922 116.14 120.23 114.464Z" fill="#C6DAE5"/>
<path fill-rule="evenodd" clip-rule="evenodd" d="M40.0752 82.7713C40.8299 89.1401 36.3128 94.9152 29.9935 95.6754C23.6704 96.4356 17.933 91.8858 17.182 85.5208C16.4273 79.1519 20.9406 73.3731 27.2637 72.6167C33.5868 71.8565 39.3204 76.4025 40.0752 82.7713Z" fill="#9BB4C6"/>
<path fill-rule="evenodd" clip-rule="evenodd" d="M55.5675 116.75C56.1382 121.564 52.7251 125.929 47.9452 126.504C43.1653 127.079 38.8323 123.641 38.2615 118.826C37.6908 114.012 41.1039 109.647 45.8838 109.073C50.6637 108.498 54.9968 111.935 55.5675 116.75Z" fill="#9BB4C6"/>
<path fill-rule="evenodd" clip-rule="evenodd" d="M72.7767 116.15C73.2498 120.167 70.4037 123.809 66.4198 124.285C62.4322 124.766 58.8163 121.899 58.3432 117.882C57.8663 113.87 60.7125 110.224 64.7001 109.747C68.684 109.267 72.2998 112.134 72.7767 116.15Z" fill="#9BB4C6"/>
<path fill-rule="evenodd" clip-rule="evenodd" d="M101.373 123.689C101.73 126.714 99.5861 129.46 96.5822 129.823C93.5784 130.182 90.8524 128.019 90.4919 124.994C90.1352 121.968 92.2792 119.222 95.2831 118.863C98.2907 118.5 101.017 120.663 101.373 123.689Z" fill="#9BB4C6"/>
<path fill-rule="evenodd" clip-rule="evenodd" d="M37.6351 58.721C37.9918 61.7466 35.8478 64.4923 32.8439 64.8554C29.8401 65.2147 27.1141 63.0514 26.7536 60.0258C26.3969 57.0002 28.5409 54.2545 31.5448 53.8952C34.5524 53.5322 37.2784 55.6955 37.6351 58.721Z" fill="#9BB4C6"/>
<path fill-rule="evenodd" clip-rule="evenodd" d="M37.6087 102.189C25.6646 102.189 15.9434 112.075 15.9434 124.23C15.9434 136.378 25.6646 146.268 37.6087 146.268H131.806C146.803 146.268 158.998 133.855 158.998 118.599C158.998 103.342 146.803 90.9297 131.806 90.9297C129.016 90.9297 126.241 91.3684 123.568 92.2269L121.826 92.7904L121.21 91.0356C115.454 74.5689 100.066 63.5066 82.9256 63.5066C61.97 63.5066 44.5776 79.4816 42.4674 100.664L42.2722 102.627L40.3497 102.385C39.2833 102.249 38.4122 102.189 37.6087 102.189Z" fill="#EDF3F9"/>
</g>
</g>
<defs>
<clipPath id="clip0_24088_140377">
<rect width="167.105" height="167.105" fill="white"/>
</clipPath>
<clipPath id="clip1_24088_140377">
<rect width="151.305" height="127.769" fill="white" transform="translate(8.40234 20.1741)"/>
</clipPath>
</defs>
</svg>
