<svg width="168" height="168" viewBox="0 0 168 168" fill="none" xmlns="http://www.w3.org/2000/svg">
<g clip-path="url(#clip0_24088_140460)">
<rect opacity="0.0229128" x="0.840582" y="0.840582" width="166.435" height="166.435" stroke="#2B2B2B" stroke-width="1.68116"/>
<g clip-path="url(#clip1_24088_140460)">
<path fill-rule="evenodd" clip-rule="evenodd" d="M38.4508 104.028C38.4508 104.028 33.8658 116.275 35.0121 120.952C35.9567 124.819 39.9332 127.189 43.8849 126.236C47.8437 125.28 50.2706 121.363 49.3225 117.495C48.1798 112.815 38.4508 104.028 38.4508 104.028Z" fill="#C0EAF9"/>
<path fill-rule="evenodd" clip-rule="evenodd" d="M66.7907 103.46C66.7907 103.46 62.2057 115.706 63.3519 120.383C64.2965 124.251 68.273 126.621 72.2247 125.668C76.1836 124.711 78.6105 120.794 77.6624 116.927C76.5196 112.247 66.7907 103.46 66.7907 103.46Z" fill="#C0EAF9"/>
<path fill-rule="evenodd" clip-rule="evenodd" d="M96.2458 102.868C96.2458 102.868 91.6608 115.115 92.807 119.791C93.7516 123.659 97.7281 126.029 101.68 125.076C105.639 124.12 108.066 120.203 107.117 116.335C105.975 111.655 96.2458 102.868 96.2458 102.868Z" fill="#C0EAF9"/>
<path fill-rule="evenodd" clip-rule="evenodd" d="M123.994 101.495C123.994 101.495 119.409 113.741 120.555 118.418C121.5 122.286 125.476 124.656 129.428 123.703C133.387 122.746 135.814 118.829 134.865 114.961C133.723 110.281 123.994 101.495 123.994 101.495Z" fill="#C0EAF9"/>
<path fill-rule="evenodd" clip-rule="evenodd" d="M55.0739 129.884C55.0739 129.884 50.4889 142.13 51.6351 146.807C52.5797 150.675 56.5562 153.044 60.508 152.092C64.4668 151.135 66.8937 147.218 65.9456 143.35C64.8028 138.67 55.0739 129.884 55.0739 129.884Z" fill="#C0EAF9"/>
<path fill-rule="evenodd" clip-rule="evenodd" d="M84.5309 129.293C84.5309 129.293 79.9459 141.539 81.0922 146.216C82.0368 150.084 86.0133 152.454 89.965 151.501C93.9238 150.544 96.3507 146.627 95.4026 142.76C94.2599 138.08 84.5309 129.293 84.5309 129.293Z" fill="#C0EAF9"/>
<path fill-rule="evenodd" clip-rule="evenodd" d="M112.273 127.918C112.273 127.918 107.688 140.165 108.834 144.842C109.779 148.709 113.755 151.079 117.707 150.126C121.666 149.17 124.093 145.253 123.145 141.385C122.002 136.705 112.273 127.918 112.273 127.918Z" fill="#C0EAF9"/>
<path fill-rule="evenodd" clip-rule="evenodd" d="M149.556 57.305C159.745 57.305 168.034 65.6523 168.034 75.9195C168.034 86.1796 159.745 94.527 149.556 94.527H69.2157C56.4301 94.527 46.0254 84.0453 46.0254 71.1621C46.0254 58.2789 56.4301 47.7973 69.2157 47.7973C71.5966 47.7973 73.9634 48.1665 76.2418 48.8943L77.7312 49.369L78.2548 47.8887C83.1653 33.9823 96.287 24.6399 110.905 24.6399C128.778 24.6399 143.612 38.1279 145.413 56.018L145.579 57.6742L147.221 57.4702C148.126 57.3577 148.869 57.305 149.556 57.305Z" fill="#C8D0D6"/>
<path fill-rule="evenodd" clip-rule="evenodd" d="M20.4131 53.8665C9.15938 53.8665 0 63.0578 0 74.3587C0 85.6526 9.15938 94.8473 20.4131 94.8473H109.166C123.296 94.8473 134.787 83.3073 134.787 69.1231C134.787 54.939 123.296 43.3989 109.166 43.3989C106.537 43.3989 103.923 43.8068 101.404 44.605L99.7626 45.1289L99.1823 43.4974C93.7589 28.1881 79.261 17.9033 63.1109 17.9033C43.3664 17.9033 26.9793 32.7556 24.9911 52.4495L24.8071 54.2744L22.9957 54.0494C21.991 53.9228 21.1702 53.8665 20.4131 53.8665Z" fill="#EDF3F9"/>
</g>
</g>
<defs>
<clipPath id="clip0_24088_140460">
<rect width="167.105" height="167.105" fill="white"/>
</clipPath>
<clipPath id="clip1_24088_140460">
<rect width="168.116" height="136.174" fill="white" transform="translate(0 16.8118)"/>
</clipPath>
</defs>
</svg>
