<svg width="168" height="168" viewBox="0 0 168 168" fill="none" xmlns="http://www.w3.org/2000/svg">
<g clip-path="url(#clip0_24088_140387)">
<rect opacity="0.0229128" x="0.840582" y="0.839606" width="166.435" height="166.435" stroke="#2B2B2B" stroke-width="1.68116"/>
<g clip-path="url(#clip1_24088_140387)">
<path fill-rule="evenodd" clip-rule="evenodd" d="M47.653 110.762H71.2358L69.9911 107.297C67.7412 101.034 65.6987 95.3581 65.0549 93.5808C63.9818 90.614 63.9389 88.3065 64.9368 86.9162C65.7524 85.7768 67.0472 85.5403 67.3477 85.5403H74.4873C78.962 85.5403 81.6948 90.0085 82.6713 93.8317C82.9754 95.0249 83.3295 96.3972 83.7158 97.8985C85.2718 103.933 87.4036 112.199 88.8845 118.645C89.9325 123.206 88.8988 125.116 88.4052 125.725C87.9473 126.291 87.3106 126.564 86.4558 126.564H61.9143L70.5061 151.101C70.9032 152.23 70.8424 152.853 70.7708 153.05C70.4453 153.097 69.2757 152.828 68.2205 151.312C63.2235 144.128 50.6291 125.55 45.1313 117.09C43.8007 115.04 43.3786 113.353 43.9437 112.335C44.4588 111.411 45.9826 110.762 47.653 110.762Z" fill="#F9C900"/>
<path fill-rule="evenodd" clip-rule="evenodd" d="M148.062 56.9744C158.364 56.9744 166.745 65.4807 166.745 75.9435C166.745 86.3991 158.364 94.9055 148.062 94.9055H66.8336C53.9065 94.9055 43.3867 84.2241 43.3867 71.0955C43.3867 57.9669 53.9065 47.2856 66.8336 47.2856C69.2409 47.2856 71.6339 47.6618 73.9374 48.4035L75.4433 48.8872L75.9727 47.3787C80.9375 33.2074 94.2044 23.687 108.984 23.687C127.055 23.687 142.053 37.4319 143.874 55.6629L144.042 57.3506L145.702 57.1428C146.617 57.0281 147.369 56.9744 148.062 56.9744Z" fill="#EDF3F9"/>
<path fill-rule="evenodd" clip-rule="evenodd" d="M0 74.1371C0 85.6461 9.26071 95.016 20.639 95.016H110.374C124.66 95.016 136.278 83.2562 136.278 68.8018C136.278 54.3474 124.66 42.5875 110.374 42.5875C107.716 42.5875 105.073 43.0032 102.526 43.8166L100.866 44.3504L100.28 42.6879C94.7962 27.0869 80.1379 16.6062 63.8091 16.6062C43.8462 16.6062 27.2778 31.7414 25.2675 51.8105L25.0815 53.6702L23.2501 53.4409C22.2343 53.3119 21.4044 53.2546 20.639 53.2546C9.26071 53.2546 0 62.6209 0 74.1371Z" fill="#C8D0D6"/>
</g>
</g>
<defs>
<clipPath id="clip0_24088_140387">
<rect width="167.105" height="167.105" fill="white"/>
</clipPath>
<clipPath id="clip1_24088_140387">
<rect width="168.116" height="139.537" fill="white" transform="translate(0 15.1306)"/>
</clipPath>
</defs>
</svg>
