<svg width="168" height="168" viewBox="0 0 168 168" fill="none" xmlns="http://www.w3.org/2000/svg">
<g clip-path="url(#clip0_24088_140444)">
<rect opacity="0.0229128" x="0.835524" y="0.835524" width="165.434" height="165.434" stroke="#2B2B2B" stroke-width="1.67105"/>
<g clip-path="url(#clip1_24088_140444)">
<path fill-rule="evenodd" clip-rule="evenodd" d="M84.5095 58.5862C98.9334 58.5973 110.616 70.2956 110.605 84.7157C110.594 99.1358 98.8925 110.815 84.4686 110.804C70.0446 110.793 58.3619 99.0949 58.3731 84.6748C58.3842 70.2547 70.0855 58.575 84.5095 58.5862Z" fill="#F9C900"/>
<path fill-rule="evenodd" clip-rule="evenodd" d="M78.2867 119.52C78.2867 119.833 78.2458 120.152 78.1602 120.468L73.8271 136.588C73.3027 138.54 71.2942 139.7 69.3415 139.176C67.3888 138.652 66.2283 136.644 66.7565 134.688L71.0896 118.568C71.614 116.616 73.6225 115.46 75.5752 115.984C77.2118 116.423 78.2867 117.903 78.2867 119.52Z" fill="#F9C900"/>
<path fill-rule="evenodd" clip-rule="evenodd" d="M60.1411 112.903C60.1411 113.888 59.7431 114.873 58.962 115.595L46.6842 126.902C45.1964 128.275 42.8792 128.178 41.5105 126.691C40.138 125.207 40.231 122.89 41.7188 121.518L53.9966 110.207C55.4844 108.838 57.8016 108.935 59.1703 110.419C59.8212 111.125 60.1411 112.014 60.1411 112.903Z" fill="#F9C900"/>
<path fill-rule="evenodd" clip-rule="evenodd" d="M50.2188 95.1294C50.2188 96.7581 49.1216 98.2418 47.4739 98.6694L31.3092 102.845C29.3491 103.351 27.3518 102.176 26.8459 100.216C26.3401 98.2604 27.5154 96.2636 29.4756 95.7579L45.6402 91.5783C47.5966 91.0726 49.5939 92.2514 50.0998 94.2073C50.1816 94.5159 50.2188 94.8245 50.2188 95.1294Z" fill="#F9C900"/>
<path fill-rule="evenodd" clip-rule="evenodd" d="M50.7321 74.6211C50.7321 74.9222 50.6949 75.2272 50.6168 75.5321C50.1109 77.4917 48.1136 78.6704 46.1572 78.1647L29.9888 74.0038C28.0287 73.5018 26.8496 71.505 27.3554 69.5491C27.8576 67.5895 29.8549 66.4107 31.815 66.9164L47.9834 71.0774C49.6348 71.5013 50.7321 72.9887 50.7321 74.6211Z" fill="#F9C900"/>
<path fill-rule="evenodd" clip-rule="evenodd" d="M60.0532 56.7966C60.0532 57.7114 59.711 58.6298 59.0229 59.34C57.617 60.7902 55.2961 60.8311 53.8455 59.4218L41.8503 47.8129C40.3997 46.4073 40.3588 44.087 41.7685 42.6368C43.1744 41.1829 45.4916 41.1457 46.9459 42.5513L58.9374 54.164C59.6813 54.8816 60.0532 55.8373 60.0532 56.7966Z" fill="#F9C900"/>
<path fill-rule="evenodd" clip-rule="evenodd" d="M77.0663 46.6195C77.0663 48.2557 75.9579 49.7468 74.2991 50.1632C72.3389 50.6578 70.349 49.4679 69.8543 47.5083L65.7741 31.3219C65.2794 29.3585 66.4697 27.3729 68.4298 26.8783C70.3899 26.3838 72.3798 27.5737 72.8745 29.5333L76.9547 45.7197C77.0291 46.0209 77.0663 46.3221 77.0663 46.6195Z" fill="#F9C900"/>
<path fill-rule="evenodd" clip-rule="evenodd" d="M101.575 31.6254C101.575 31.9341 101.534 32.2464 101.452 32.5551L97.2086 48.7005C96.6953 50.6527 94.6942 51.824 92.7378 51.3072C90.7814 50.794 89.6135 48.7898 90.1268 46.8376L94.3706 30.6958C94.8839 28.7399 96.8887 27.5723 98.8451 28.0855C100.489 28.5168 101.575 30.0005 101.575 31.6254Z" fill="#F9C900"/>
<path fill-rule="evenodd" clip-rule="evenodd" d="M128.128 45.5637C128.128 46.5863 127.7 47.6014 126.871 48.3228L114.273 59.2811C112.748 60.6048 110.435 60.4449 109.107 58.9204C107.779 57.3958 107.939 55.0829 109.468 53.7555L122.061 42.8009C123.59 41.4734 125.9 41.6333 127.228 43.1579C127.834 43.8532 128.128 44.7122 128.128 45.5637Z" fill="#F9C900"/>
<path fill-rule="evenodd" clip-rule="evenodd" d="M141.112 69.9931C141.112 71.5994 140.044 73.0719 138.419 73.5181L122.318 77.9357C120.369 78.4711 118.353 77.3221 117.817 75.3737C117.281 73.4215 118.431 71.4098 120.38 70.8743L136.481 66.4568C138.43 65.9251 140.446 67.0704 140.982 69.0188C141.071 69.3461 141.112 69.6733 141.112 69.9931Z" fill="#F9C900"/>
<path fill-rule="evenodd" clip-rule="evenodd" d="M140.834 98.5332C140.834 98.8344 140.796 99.1393 140.718 99.4442C140.212 101.404 138.215 102.583 136.259 102.077L120.09 97.9159C118.13 97.4139 116.951 95.4171 117.457 93.4612C117.959 91.5016 119.956 90.3228 121.917 90.8286L138.085 94.9895C139.736 95.4134 140.834 96.9008 140.834 98.5332Z" fill="#F9C900"/>
<path fill-rule="evenodd" clip-rule="evenodd" d="M127.161 123.667C127.161 124.615 126.793 125.567 126.06 126.281C124.613 127.694 122.296 127.668 120.882 126.222L109.211 114.289C107.798 112.843 107.82 110.526 109.267 109.113C110.714 107.7 113.031 107.726 114.444 109.169L126.116 121.105C126.815 121.819 127.161 122.741 127.161 123.667Z" fill="#F9C900"/>
<path fill-rule="evenodd" clip-rule="evenodd" d="M101.952 137.166C101.952 138.78 100.874 140.256 99.241 140.695C97.2883 141.223 95.2798 140.066 94.7553 138.114L90.411 121.999C89.8829 120.046 91.0396 118.035 92.9923 117.51C94.945 116.982 96.9535 118.139 97.4817 120.091L101.826 136.21C101.912 136.53 101.952 136.85 101.952 137.166Z" fill="#F9C900"/>
</g>
</g>
<defs>
<clipPath id="clip0_24088_140444">
<rect width="167.105" height="167.105" fill="white"/>
</clipPath>
<clipPath id="clip1_24088_140444">
<rect width="116.973" height="115.302" fill="white" transform="translate(25.0625 26.7366)"/>
</clipPath>
</defs>
</svg>
