<svg width="168" height="168" viewBox="0 0 168 168" fill="none" xmlns="http://www.w3.org/2000/svg">
<g clip-path="url(#clip0_24088_140424)">
<rect opacity="0.0229128" x="0.835524" y="0.83528" width="163.779" height="165.434" stroke="#2B2B2B" stroke-width="1.67105"/>
<g clip-path="url(#clip1_24088_140424)">
<path fill-rule="evenodd" clip-rule="evenodd" d="M50.5849 56.0073C63.2142 56.0169 73.4429 66.1641 73.4333 78.6731C73.4236 91.1821 63.1788 101.313 50.5495 101.304C37.9203 101.294 27.6915 91.1471 27.7012 78.6381C27.7108 66.1291 37.9556 55.9978 50.5849 56.0073Z" fill="#F9C900"/>
<path fill-rule="evenodd" clip-rule="evenodd" d="M45.1374 108.863C45.1374 109.137 45.1021 109.41 45.0282 109.687L41.2329 123.67C40.7734 125.363 39.0156 126.366 37.306 125.911C35.5932 125.456 34.5809 123.715 35.0404 122.021L38.8356 108.039C39.2952 106.345 41.053 105.343 42.7626 105.795C44.1958 106.177 45.1374 107.463 45.1374 108.863Z" fill="#F9C900"/>
<path fill-rule="evenodd" clip-rule="evenodd" d="M29.2517 103.122C29.2517 103.978 28.9046 104.831 28.2169 105.455L17.4676 115.268C16.1661 116.456 14.1383 116.373 12.9397 115.084C11.7378 113.795 11.8214 111.786 13.1229 110.596L23.8722 100.786C25.1769 99.5987 27.2046 99.6783 28.4033 100.971C28.9721 101.579 29.2517 102.352 29.2517 103.122Z" fill="#F9C900"/>
<mask id="mask0_24088_140424" style="mask-type:luminance" maskUnits="userSpaceOnUse" x="0" y="84" width="21" height="11">
<path fill-rule="evenodd" clip-rule="evenodd" d="M0 84.5273V94.503H20.5651V84.5273L0 84.5273L0 84.5273Z" fill="white"/>
</mask>
<g mask="url(#mask0_24088_140424)">
<path fill-rule="evenodd" clip-rule="evenodd" d="M20.5657 87.7073C20.5657 89.1206 19.6048 90.4065 18.162 90.7757L4.00947 94.4011C2.29664 94.8403 0.545257 93.8186 0.101786 92.1221C-0.338471 90.4256 0.689867 88.6909 2.4059 88.2516L16.5584 84.6294C18.2712 84.1902 20.0194 85.2087 20.4629 86.9084C20.5336 87.1758 20.5657 87.4432 20.5657 87.7073Z" fill="#F9C900"/>
</g>
<path fill-rule="evenodd" clip-rule="evenodd" d="M21.0179 69.9171C21.0179 70.1781 20.9858 70.4423 20.9151 70.7097C20.4748 72.4062 18.7267 73.4279 17.0138 72.9919L2.85492 69.3824C1.1421 68.9463 0.11055 67.2116 0.550806 65.5151C0.991063 63.8186 2.73924 62.7969 4.45527 63.2329L18.611 66.8424C20.0571 67.2116 21.0179 68.5007 21.0179 69.9171Z" fill="#F9C900"/>
<path fill-rule="evenodd" clip-rule="evenodd" d="M29.1719 54.4554C29.1719 55.2511 28.8731 56.0469 28.2689 56.6612C27.0381 57.9216 25.0071 57.9535 23.7346 56.7344L13.2359 46.6604C11.9633 45.4413 11.9312 43.4329 13.162 42.1724C14.3928 40.912 16.4237 40.8801 17.6963 42.0992L28.195 52.17C28.8473 52.7939 29.1719 53.6247 29.1719 54.4554Z" fill="#F9C900"/>
<path fill-rule="evenodd" clip-rule="evenodd" d="M44.0653 45.6267C44.0653 47.0463 43.0948 48.3386 41.6423 48.7015C39.9263 49.1312 38.1813 48.0999 37.7507 46.397L34.1772 32.357C33.7466 30.6541 34.7878 28.9322 36.5038 28.5025C38.2199 28.076 39.9648 29.1072 40.3955 30.8069L43.9689 44.8469C44.0332 45.1079 44.0653 45.3689 44.0653 45.6267Z" fill="#F9C900"/>
<path fill-rule="evenodd" clip-rule="evenodd" d="M65.5313 32.6215C65.5313 32.8889 65.496 33.1594 65.4253 33.43L61.7104 47.4318C61.2605 49.1283 59.5059 50.1405 57.7931 49.6949C56.0835 49.2492 55.0584 47.5113 55.5083 45.818L59.2231 31.813C59.673 30.1197 61.4276 29.1044 63.1404 29.55C64.5801 29.9256 65.5313 31.2115 65.5313 32.6215Z" fill="#F9C900"/>
<path fill-rule="evenodd" clip-rule="evenodd" d="M88.7745 44.7116C88.7745 45.5964 88.4017 46.4781 87.6723 47.1051L76.6433 56.6094C75.3097 57.7585 73.282 57.6184 72.1219 56.2975C70.9586 54.9734 71.1 52.9681 72.4368 51.8159L83.4657 42.3148C84.7993 41.1626 86.8239 41.3026 87.9872 42.6267C88.5174 43.2283 88.7745 43.9731 88.7745 44.7116Z" fill="#F9C900"/>
<path fill-rule="evenodd" clip-rule="evenodd" d="M100.138 65.9022C100.138 67.2963 99.2025 68.5727 97.7788 68.961L83.6842 72.7901C81.9746 73.2548 80.2104 72.2617 79.7444 70.5684C79.2752 68.8751 80.2778 67.1308 81.9874 66.6661L96.0821 62.837C97.7917 62.3723 99.5527 63.3654 100.022 65.0587C100.099 65.3388 100.138 65.6221 100.138 65.9022Z" fill="#F9C900"/>
<path fill-rule="evenodd" clip-rule="evenodd" d="M99.8999 90.6574C99.8999 90.9184 99.8677 91.1826 99.797 91.4499C99.3568 93.1464 97.6086 94.1682 95.8958 93.7321L81.7369 90.1226C80.024 89.6866 78.9893 87.955 79.4327 86.2554C79.873 84.5588 81.6212 83.5371 83.3372 83.9732L97.4929 87.5826C98.939 87.9519 99.8999 89.241 99.8999 90.6574Z" fill="#F9C900"/>
<path fill-rule="evenodd" clip-rule="evenodd" d="M87.9315 112.459C87.9315 113.284 87.6102 114.105 86.9675 114.726C85.7013 115.954 83.6704 115.932 82.4331 114.678L72.214 104.324C70.9768 103.07 70.9993 101.061 72.2655 99.8358C73.5316 98.6072 75.5626 98.6295 76.7998 99.8835L87.0189 110.238C87.6295 110.855 87.9315 111.657 87.9315 112.459Z" fill="#F9C900"/>
<path fill-rule="evenodd" clip-rule="evenodd" d="M65.858 124.17C65.858 125.57 64.9164 126.85 63.4864 127.232C61.7768 127.687 60.0158 126.684 59.5562 124.991L55.7514 111.011C55.2918 109.318 56.3041 107.577 58.0137 107.118C59.7233 106.663 61.4844 107.666 61.9439 109.359L65.7455 123.339C65.8227 123.616 65.858 123.896 65.858 124.17Z" fill="#F9C900"/>
<path fill-rule="evenodd" clip-rule="evenodd" d="M149.227 82.8384C158.482 82.8384 166.011 90.3947 166.011 99.6889C166.011 108.977 158.482 116.533 149.227 116.533H76.2504C64.6366 116.533 55.1855 107.045 55.1855 95.3824C55.1855 83.7201 64.6366 74.2317 76.2504 74.2317C78.4131 74.2317 80.563 74.5659 82.6325 75.2248L83.9854 75.6545L84.461 74.3145C88.9214 61.7259 100.841 53.2688 114.119 53.2688C130.354 53.2688 143.828 65.4786 145.464 81.6734L145.615 83.1726L147.106 82.988C147.929 82.8861 148.604 82.8384 149.227 82.8384Z" fill="#C8D0D6"/>
<path fill-rule="evenodd" clip-rule="evenodd" d="M29.6184 100.367C19.3961 100.367 11.0762 108.687 11.0762 118.917C11.0762 129.141 19.3961 137.464 29.6184 137.464H110.237C123.072 137.464 133.509 127.018 133.509 114.178C133.509 101.338 123.072 90.8916 110.237 90.8916C107.849 90.8916 105.474 91.2608 103.186 91.9833L101.695 92.4576L101.168 90.9807C96.2418 77.1221 83.0726 67.812 68.4028 67.812C50.4679 67.812 35.5827 81.2568 33.7767 99.0845L33.6096 100.736L31.9643 100.533C31.0516 100.418 30.3061 100.367 29.6184 100.367Z" fill="#EDF3F9"/>
</g>
</g>
<defs>
<clipPath id="clip0_24088_140424">
<rect width="167.105" height="167.105" fill="white"/>
</clipPath>
<clipPath id="clip1_24088_140424">
<rect width="167.105" height="110.289" fill="white" transform="translate(0 28.4072)"/>
</clipPath>
</defs>
</svg>
