<svg width="168" height="168" viewBox="0 0 168 168" fill="none" xmlns="http://www.w3.org/2000/svg">
<g clip-path="url(#clip0_24088_140527)">
<rect opacity="0.0229128" x="0.840582" y="0.840582" width="166.435" height="166.435" stroke="#2B2B2B" stroke-width="1.68116"/>
<g clip-path="url(#clip1_24088_140527)">
<path fill-rule="evenodd" clip-rule="evenodd" d="M52.3735 116.323C52.3735 116.323 47.6861 129.461 48.9169 134.5C49.934 138.669 54.1018 141.249 58.2143 140.254C62.3416 139.256 64.8437 135.058 63.8267 130.892C62.5958 125.85 52.3735 116.323 52.3735 116.323Z" fill="#C0EAF9"/>
<path fill-rule="evenodd" clip-rule="evenodd" d="M81.9458 115.93C81.9458 115.93 77.2584 129.068 78.4892 134.111C79.5062 138.276 83.674 140.856 87.7866 139.862C91.9138 138.863 94.416 134.665 93.3989 130.5C92.1681 125.457 81.9458 115.93 81.9458 115.93Z" fill="#C0EAF9"/>
<path fill-rule="evenodd" clip-rule="evenodd" d="M112.672 115.522C112.672 115.522 107.985 128.66 109.216 133.699C110.233 137.868 114.401 140.448 118.513 139.453C122.64 138.455 125.143 134.257 124.122 130.091C122.891 125.049 112.672 115.522 112.672 115.522Z" fill="#C0EAF9"/>
<path fill-rule="evenodd" clip-rule="evenodd" d="M34.712 63.9273C22.9898 63.9273 13.4492 73.5204 13.4492 85.3154C13.4492 97.1031 22.9898 106.7 34.712 106.7H127.159C141.877 106.7 153.846 94.6553 153.846 79.851C153.846 65.0466 141.877 53.002 127.159 53.002C124.421 53.002 121.698 53.4277 119.074 54.2608L117.364 54.8076L116.76 53.1048C111.111 37.126 96.0093 26.3916 79.187 26.3916C58.6207 26.3916 41.5515 41.8932 39.4805 62.4483L39.2888 64.353L37.4021 64.1181C36.3555 63.986 35.5006 63.9273 34.712 63.9273Z" fill="#EDF3F9"/>
</g>
</g>
<defs>
<clipPath id="clip0_24088_140527">
<rect width="167.105" height="167.105" fill="white"/>
</clipPath>
<clipPath id="clip1_24088_140527">
<rect width="141.218" height="116" fill="white" transform="translate(13.4492 25.2178)"/>
</clipPath>
</defs>
</svg>
