<svg width="168" height="168" viewBox="0 0 168 168" fill="none" xmlns="http://www.w3.org/2000/svg">
<g clip-path="url(#clip0_24088_140534)">
<rect opacity="0.0229128" x="0.840582" y="0.840582" width="166.435" height="166.435" stroke="#2B2B2B" stroke-width="1.68116"/>
<path fill-rule="evenodd" clip-rule="evenodd" d="M137.607 89.5418C137.359 88.5748 136.747 87.7606 135.88 87.2522C135.016 86.74 133.999 86.5985 133.02 86.847L108.545 93.4063L92.3573 84.0604L108.545 74.7108L133.078 81.2815C135.096 81.744 137.084 80.5667 137.6 78.6058C137.867 77.6273 137.733 76.6067 137.225 75.7313C136.717 74.856 135.906 74.2406 134.951 73.996L117.769 69.3861L134.461 59.7574C136.231 58.6833 136.82 56.4395 135.796 54.6468C134.767 52.8464 132.455 52.2195 130.65 53.2516L114.011 62.8727L118.617 45.6793C118.87 44.7161 118.721 43.6725 118.216 42.8125C117.704 41.9448 116.89 41.3332 115.923 41.0847C113.95 40.5802 111.898 41.7728 111.347 43.749L104.792 68.1973L88.6036 77.547V58.8476L106.516 40.9395C107.949 39.4793 107.945 37.1017 106.508 35.6339C105.797 34.9191 104.849 34.5254 103.84 34.5254C102.835 34.5254 101.89 34.9191 101.179 35.6301L88.6036 48.2059V28.9714C88.6036 26.9035 86.9103 25.2178 84.8309 25.2178C82.7591 25.2178 81.0772 26.9035 81.0772 28.9714V48.2059L68.5052 35.6339C67.7943 34.9191 66.8463 34.5254 65.8372 34.5254C64.8319 34.5254 63.8839 34.923 63.1615 35.6454C61.7319 37.1056 61.7395 39.4831 63.1767 40.9509L81.0772 58.8476V77.547L64.8854 68.1973L58.3261 43.726C57.7795 41.7651 55.7306 40.5802 53.7582 41.0847C51.7515 41.5969 50.5436 43.6649 51.0596 45.6946L55.6695 62.8765L39.0036 53.2477C37.1994 52.2195 34.9442 52.8311 33.8663 54.6468C32.838 56.4509 33.4496 58.7062 35.2614 59.7803L51.912 69.3861L34.7645 73.9883C33.7936 74.2329 32.9756 74.8407 32.4672 75.7046C31.955 76.5685 31.8098 77.6273 32.0697 78.6173C32.5246 80.2495 34.0153 81.3847 35.6934 81.3847C36.0106 81.3847 36.3203 81.3465 36.6796 81.2624L61.1164 74.7108L77.3198 84.0604L61.1317 93.4063L36.6643 86.8508C35.701 86.5985 34.6499 86.7438 33.7898 87.256C32.9374 87.7606 32.3143 88.5824 32.085 89.4998C31.8136 90.4707 31.9436 91.4875 32.4481 92.3704C32.9489 93.2381 33.7783 93.8765 34.7301 94.1249L51.912 98.731L35.2385 108.352C33.4496 109.411 32.8418 111.712 33.8854 113.47C34.5619 114.651 35.7851 115.359 37.1536 115.359C37.811 115.359 38.457 115.19 39.0304 114.866L55.6848 105.241L51.0825 122.411C50.815 123.378 50.9488 124.399 51.4571 125.278C51.9541 126.138 52.7529 126.757 53.6933 127.013C54.0182 127.113 54.3507 127.158 54.7139 127.158C56.3804 127.158 57.875 126.016 58.3528 124.368L64.8892 99.9159L81.0772 90.5701V109.269L63.192 127.166C61.7242 128.634 61.7242 131.019 63.192 132.487C63.903 133.198 64.8472 133.592 65.8601 133.592C66.8692 133.588 67.8095 133.198 68.5167 132.487L81.0772 119.915V139.146C81.0772 141.217 82.7668 142.899 84.8462 142.899C86.9179 142.899 88.6036 141.217 88.6036 139.146V119.911L101.172 132.479C101.883 133.198 102.831 133.592 103.832 133.592C104.849 133.592 105.797 133.198 106.5 132.487C107.968 131.019 107.968 128.634 106.5 127.166L88.6036 109.269V90.5739L104.792 99.9351L111.34 124.399C111.798 126.023 113.289 127.158 114.967 127.158C115.326 127.158 115.659 127.113 115.972 127.017C116.928 126.761 117.727 126.146 118.224 125.289C118.728 124.422 118.866 123.378 118.602 122.422L113.996 105.256L130.67 114.877C131.243 115.202 131.885 115.37 132.527 115.37C133.884 115.37 135.1 114.667 135.788 113.486C136.82 111.712 136.208 109.403 134.419 108.337L117.769 98.731L134.935 94.1288C135.91 93.8727 136.724 93.2496 137.233 92.3704C137.73 91.5027 137.867 90.4707 137.607 89.5418Z" fill="#C0EAF9"/>
</g>
<defs>
<clipPath id="clip0_24088_140534">
<rect width="167.105" height="167.105" fill="white"/>
</clipPath>
</defs>
</svg>
