<svg width="168" height="168" viewBox="0 0 168 168" fill="none" xmlns="http://www.w3.org/2000/svg">
<g clip-path="url(#clip0_24088_140504)">
<rect opacity="0.0229128" x="0.840582" y="0.840582" width="166.435" height="166.435" stroke="#2B2B2B" stroke-width="1.68116"/>
<g clip-path="url(#clip1_24088_140504)">
<path fill-rule="evenodd" clip-rule="evenodd" d="M148.98 70.6727C158.961 70.6727 167.081 78.8568 167.081 88.9231C167.081 98.9825 158.961 107.167 148.98 107.167H70.2795C57.7548 107.167 47.5625 96.8899 47.5625 84.2588C47.5625 71.6277 57.7548 61.3511 70.2795 61.3511C72.6119 61.3511 74.9304 61.713 77.1622 62.4266L78.6212 62.892L79.1342 61.4407C83.9444 47.8064 96.7983 38.6467 111.118 38.6467C128.626 38.6467 143.158 51.8708 144.922 69.411L145.085 71.0347L146.693 70.8348C147.58 70.7245 148.308 70.6727 148.98 70.6727Z" fill="#C8D0D6"/>
<path fill-rule="evenodd" clip-rule="evenodd" d="M19.9965 89.6573C8.97245 89.6573 0 98.6688 0 109.749C0 120.822 8.97245 129.836 19.9965 129.836H106.938C120.78 129.836 132.036 118.522 132.036 104.615C132.036 90.7088 120.78 79.3945 106.938 79.3945C104.363 79.3945 101.802 79.7944 99.3346 80.577L97.7266 81.0906L97.1582 79.4911C91.8454 64.4812 77.6434 54.3977 61.8229 54.3977C42.4814 54.3977 26.4287 68.9594 24.481 88.2681L24.3008 90.0572L22.5264 89.8366C21.5422 89.7125 20.7382 89.6573 19.9965 89.6573Z" fill="#EDF3F9"/>
</g>
</g>
<defs>
<clipPath id="clip0_24088_140504">
<rect width="167.105" height="167.105" fill="white"/>
</clipPath>
<clipPath id="clip1_24088_140504">
<rect width="168.116" height="94.1452" fill="white" transform="translate(0 36.9858)"/>
</clipPath>
</defs>
</svg>
