<svg width="168" height="168" viewBox="0 0 168 168" fill="none" xmlns="http://www.w3.org/2000/svg">
<g clip-path="url(#clip0_24088_140520)">
<rect opacity="0.0229128" x="0.840582" y="0.840582" width="166.435" height="166.435" stroke="#2B2B2B" stroke-width="1.68116"/>
<g clip-path="url(#clip1_24088_140520)">
<path fill-rule="evenodd" clip-rule="evenodd" d="M58.7737 130.313C58.7737 135.108 54.8349 138.996 49.9778 138.996C45.1207 138.996 41.1855 135.108 41.1855 130.313C41.1855 125.518 45.1207 121.63 49.9778 121.63C54.8349 121.63 58.7737 125.518 58.7737 130.313Z" fill="#C0EAF9"/>
<path fill-rule="evenodd" clip-rule="evenodd" d="M91.2816 130.313C91.2816 135.108 87.3427 138.996 82.4856 138.996C77.6285 138.996 73.6934 135.108 73.6934 130.313C73.6934 125.518 77.6285 121.63 82.4856 121.63C87.3427 121.63 91.2816 125.518 91.2816 130.313Z" fill="#C0EAF9"/>
<path fill-rule="evenodd" clip-rule="evenodd" d="M124.116 130.313C124.116 135.108 120.177 138.996 115.32 138.996C110.462 138.996 106.527 135.108 106.527 130.313C106.527 125.518 110.462 121.63 115.32 121.63C120.177 121.63 124.116 125.518 124.116 130.313Z" fill="#C0EAF9"/>
<path fill-rule="evenodd" clip-rule="evenodd" d="M34.7291 65.8533C22.9975 65.8533 13.4492 75.3696 13.4492 87.0702C13.4492 98.7635 22.9975 108.283 34.7291 108.283H127.251C141.981 108.283 153.959 96.3353 153.959 81.6495C153.959 66.9637 141.981 55.0155 127.251 55.0155C124.51 55.0155 121.785 55.4378 119.159 56.2642L117.448 56.8066L116.843 55.1174C111.189 39.2667 96.0757 28.6182 79.2399 28.6182C58.657 28.6182 41.5741 43.9957 39.5014 64.3862L39.3097 66.2756L37.4214 66.0426C36.374 65.9116 35.5184 65.8533 34.7291 65.8533Z" fill="#EDF3F9"/>
</g>
</g>
<defs>
<clipPath id="clip0_24088_140520">
<rect width="167.105" height="167.105" fill="white"/>
</clipPath>
<clipPath id="clip1_24088_140520">
<rect width="141.218" height="110.957" fill="white" transform="translate(13.4492 28.5801)"/>
</clipPath>
</defs>
</svg>
