<svg width="168" height="168" viewBox="0 0 168 168" fill="none" xmlns="http://www.w3.org/2000/svg">
<g clip-path="url(#clip0_24088_140509)">
<rect opacity="0.0229128" x="0.840582" y="0.840582" width="166.435" height="166.435" stroke="#2B2B2B" stroke-width="1.68116"/>
<g clip-path="url(#clip1_24088_140509)">
<path fill-rule="evenodd" clip-rule="evenodd" d="M63.2503 29.2378C57.6706 51.4425 49.221 117.042 136.427 115.442C138.788 115.399 140.219 117.988 138.85 119.902C132.889 128.227 116.672 144.26 81.4573 141.309C81.4573 141.309 30.8614 135.093 28.6782 78.4545C28.6782 78.4545 26.6439 45.4507 58.6841 25.8969C61.0199 24.4739 63.9151 26.5976 63.2503 29.2378Z" fill="#C6DAE5"/>
<path fill-rule="evenodd" clip-rule="evenodd" d="M49.1307 97.4995C43.0132 98.2255 37.4625 93.8806 36.736 87.8021C36.0058 81.72 40.3723 76.2013 46.4897 75.4789C52.6071 74.753 58.1542 79.0943 58.8844 85.1764C59.6146 91.2585 55.2445 96.7736 49.1307 97.4995Z" fill="#9BB4C6"/>
<path fill-rule="evenodd" clip-rule="evenodd" d="M73.8658 117.625C74.418 122.222 71.1159 126.39 66.4915 126.939C61.8671 127.488 57.675 124.205 57.1228 119.607C56.5706 115.01 59.8727 110.842 64.4971 110.293C69.1215 109.744 73.3136 113.027 73.8658 117.625Z" fill="#9BB4C6"/>
<path fill-rule="evenodd" clip-rule="evenodd" d="M90.5164 117.053C90.9741 120.889 88.2206 124.367 84.3663 124.822C80.5084 125.28 77.0101 122.543 76.5524 118.707C76.0911 114.875 78.8446 111.393 82.7025 110.938C86.5568 110.48 90.0551 113.217 90.5164 117.053Z" fill="#9BB4C6"/>
<path fill-rule="evenodd" clip-rule="evenodd" d="M118.18 124.252C118.525 127.141 116.451 129.763 113.545 130.11C110.639 130.453 108.001 128.387 107.653 125.498C107.308 122.608 109.382 119.986 112.288 119.643C115.198 119.296 117.835 121.362 118.18 124.252Z" fill="#9BB4C6"/>
<path fill-rule="evenodd" clip-rule="evenodd" d="M56.522 62.2085C56.8671 65.0979 54.7929 67.72 51.8867 68.0667C48.9806 68.4098 46.3433 66.3439 45.9945 63.4546C45.6494 60.5652 47.7237 57.9431 50.6298 57.6C53.5396 57.2533 56.1769 59.3192 56.522 62.2085Z" fill="#9BB4C6"/>
<path fill-rule="evenodd" clip-rule="evenodd" d="M99.8617 53.5256C102.677 53.5256 103.869 62.4177 105.278 63.7359C106.687 65.0542 115.747 62.8872 116.721 65.7043C117.694 68.5178 109.514 72.2704 108.624 73.9787C107.734 75.6871 112.765 83.7159 110.28 85.4062C107.795 87.0965 101.798 80.3101 99.8617 80.3101C97.9255 80.3101 91.8226 87.2771 89.4432 85.4062C87.0638 83.5353 91.986 75.6871 91.096 73.9787C90.2097 72.2704 82.0143 68.4853 83.0024 65.7043C83.9905 62.9197 93.0359 65.0542 94.4454 63.7359C95.8548 62.4177 97.0464 53.5256 99.8617 53.5256Z" fill="#F9C900"/>
<path fill-rule="evenodd" clip-rule="evenodd" d="M116.801 28.0276C118.661 28.0276 119.446 33.8966 120.376 34.767C121.306 35.6375 127.281 34.2036 127.924 36.0636C128.567 37.9201 123.173 40.3977 122.584 41.5245C121.996 42.6514 125.316 47.9498 123.678 49.0658C122.036 50.1818 118.08 45.7033 116.801 45.7033C115.522 45.7033 111.497 50.301 109.924 49.0658C108.355 47.8306 111.606 42.6514 111.018 41.5245C110.429 40.3977 105.024 37.8984 105.678 36.0636C106.328 34.2289 112.297 35.6375 113.227 34.767C114.156 33.8966 114.945 28.0276 116.801 28.0276Z" fill="#F9C900"/>
</g>
</g>
<defs>
<clipPath id="clip0_24088_140509">
<rect width="167.105" height="167.105" fill="white"/>
</clipPath>
<clipPath id="clip1_24088_140509">
<rect width="110.957" height="117.682" fill="white" transform="translate(28.5781 25.2178)"/>
</clipPath>
</defs>
</svg>
