<svg width="168" height="167" viewBox="0 0 168 167" fill="none" xmlns="http://www.w3.org/2000/svg">
<g clip-path="url(#clip0_24088_140482)">
<rect opacity="0.0229128" x="2.52027" y="0.840338" width="164.771" height="166.435" stroke="#2B2B2B" stroke-width="1.68116"/>
<g clip-path="url(#clip1_24088_140482)">
<path fill-rule="evenodd" clip-rule="evenodd" d="M127.587 101.696C129.84 101.654 131.206 104.153 129.899 106.001C124.212 114.036 108.742 129.509 75.1459 126.662C75.1459 126.662 26.877 120.662 24.7942 65.9975C24.7942 65.9975 22.8534 34.144 53.4201 15.2716C55.6484 13.8982 58.4105 15.9479 57.7763 18.496C52.4532 39.927 44.3922 103.24 127.587 101.696Z" fill="#C6DAE5"/>
<path fill-rule="evenodd" clip-rule="evenodd" d="M53.6121 72.485C54.3087 78.3552 50.1396 83.6781 44.307 84.3787C38.4709 85.0794 33.1754 80.8859 32.4823 75.0193C31.7857 69.1491 35.9514 63.8227 41.7875 63.1256C47.6235 62.4249 52.9155 66.6149 53.6121 72.485Z" fill="#9BB4C6"/>
<path fill-rule="evenodd" clip-rule="evenodd" d="M67.9035 103.803C68.4303 108.24 65.2801 112.263 60.8684 112.793C56.4566 113.322 52.4573 110.154 51.9306 105.716C51.4038 101.279 54.554 97.2562 58.9657 96.7263C63.3775 96.1965 67.3768 99.3651 67.9035 103.803Z" fill="#9BB4C6"/>
<path fill-rule="evenodd" clip-rule="evenodd" d="M83.7859 103.251C84.2226 106.953 81.5957 110.31 77.9187 110.749C74.2382 111.191 70.9008 108.549 70.4642 104.847C70.024 101.149 72.651 97.7884 76.3314 97.3492C80.0084 96.9065 83.3458 99.5488 83.7859 103.251Z" fill="#9BB4C6"/>
<path fill-rule="evenodd" clip-rule="evenodd" d="M110.181 110.199C110.51 112.988 108.531 115.518 105.759 115.853C102.986 116.184 100.47 114.19 100.137 111.402C99.8081 108.613 101.787 106.082 104.559 105.751C107.335 105.416 109.851 107.41 110.181 110.199Z" fill="#9BB4C6"/>
<path fill-rule="evenodd" clip-rule="evenodd" d="M51.3584 50.3181C51.6876 53.1067 49.7088 55.6375 46.9363 55.9721C44.1638 56.3033 41.6478 54.3094 41.3151 51.5207C40.9859 48.732 42.9647 46.2013 45.7372 45.8702C48.5131 45.5355 51.0292 47.5294 51.3584 50.3181Z" fill="#9BB4C6"/>
<path fill-rule="evenodd" clip-rule="evenodd" d="M148.98 93.7428C158.961 93.7428 167.081 102.018 167.081 112.197C167.081 122.368 158.961 130.644 148.98 130.644H70.2795C57.7548 130.644 47.5625 120.253 47.5625 107.48C47.5625 94.7084 57.7548 84.3171 70.2795 84.3171C72.6119 84.3171 74.9304 84.6831 77.1622 85.4047L78.6212 85.8753L79.1342 84.4077C83.9444 70.6212 96.7983 61.3594 111.118 61.3594C128.626 61.3594 143.158 74.731 144.922 92.467L145.085 94.1088L146.693 93.9066C147.58 93.7951 148.308 93.7428 148.98 93.7428Z" fill="#C8D0D6"/>
<path fill-rule="evenodd" clip-rule="evenodd" d="M19.9965 112.939C8.97245 112.939 0 122.05 0 133.254C0 144.45 8.97245 153.566 19.9965 153.566H106.938C120.78 153.566 132.036 142.125 132.036 128.064C132.036 114.002 120.78 102.561 106.938 102.561C104.363 102.561 101.802 102.966 99.3346 103.757L97.7266 104.276L97.1582 102.659C91.8454 87.4815 77.6434 77.2854 61.8229 77.2854C42.4814 77.2854 26.4287 92.0096 24.481 111.534L24.3008 113.343L22.5264 113.12C21.5422 112.994 20.7382 112.939 19.9965 112.939Z" fill="#EDF3F9"/>
</g>
</g>
<defs>
<clipPath id="clip0_24088_140482">
<rect width="167.94" height="166.278" fill="white"/>
</clipPath>
<clipPath id="clip1_24088_140482">
<rect width="168.116" height="141.218" fill="white" transform="translate(0 13.4492)"/>
</clipPath>
</defs>
</svg>
