<svg width="168" height="168" viewBox="0 0 168 168" fill="none" xmlns="http://www.w3.org/2000/svg">
<g clip-path="url(#clip0_24088_140472)">
<rect opacity="0.0229128" x="0.840582" y="0.840582" width="166.435" height="166.435" stroke="#2B2B2B" stroke-width="1.68116"/>
<g clip-path="url(#clip1_24088_140472)">
<path fill-rule="evenodd" clip-rule="evenodd" d="M59.832 117.634C59.832 122.24 56.0932 125.975 51.4826 125.975C46.8721 125.975 43.1367 122.24 43.1367 117.634C43.1367 113.029 46.8721 109.294 51.4826 109.294C56.0932 109.294 59.832 113.029 59.832 117.634Z" fill="#C0EAF9"/>
<path fill-rule="evenodd" clip-rule="evenodd" d="M90.6875 117.634C90.6875 122.24 86.9486 125.975 82.3381 125.975C77.7275 125.975 73.9922 122.24 73.9922 117.634C73.9922 113.029 77.7275 109.294 82.3381 109.294C86.9486 109.294 90.6875 113.029 90.6875 117.634Z" fill="#C0EAF9"/>
<path fill-rule="evenodd" clip-rule="evenodd" d="M121.863 117.634C121.863 122.24 118.124 125.975 113.514 125.975C108.903 125.975 105.168 122.24 105.168 117.634C105.168 113.029 108.903 109.294 113.514 109.294C118.124 109.294 121.863 113.029 121.863 117.634Z" fill="#C0EAF9"/>
<path fill-rule="evenodd" clip-rule="evenodd" d="M138.557 140.103C138.557 144.709 134.818 148.444 130.207 148.444C125.597 148.444 121.861 144.709 121.861 140.103C121.861 135.498 125.597 131.763 130.207 131.763C134.818 131.763 138.557 135.498 138.557 140.103Z" fill="#C0EAF9"/>
<path fill-rule="evenodd" clip-rule="evenodd" d="M106.504 140.103C106.504 144.709 102.765 148.444 98.1545 148.444C93.5439 148.444 89.8086 144.709 89.8086 140.103C89.8086 135.498 93.5439 131.763 98.1545 131.763C102.765 131.763 106.504 135.498 106.504 140.103Z" fill="#C0EAF9"/>
<path fill-rule="evenodd" clip-rule="evenodd" d="M75.6953 140.103C75.6953 144.709 71.9564 148.444 67.3459 148.444C62.7353 148.444 59 144.709 59 140.103C59 135.498 62.7353 131.763 67.3459 131.763C71.9564 131.763 75.6953 135.498 75.6953 140.103Z" fill="#C0EAF9"/>
<path fill-rule="evenodd" clip-rule="evenodd" d="M37.0082 55.7137C25.8721 55.7137 16.8086 64.8551 16.8086 76.0947C16.8086 87.3274 25.8721 96.4722 37.0082 96.4722H124.833C138.815 96.4722 150.185 84.9948 150.185 70.8876C150.185 56.7803 138.815 45.3029 124.833 45.3029C122.231 45.3029 119.644 45.7086 117.152 46.5024L115.527 47.0235L114.953 45.4008C109.587 30.1745 95.2404 19.9456 79.2593 19.9456C59.7213 19.9456 43.5056 34.7172 41.5382 54.3044L41.3562 56.1194L39.5638 55.8956C38.5695 55.7697 37.7573 55.7137 37.0082 55.7137Z" fill="#EDF3F9"/>
</g>
</g>
<defs>
<clipPath id="clip0_24088_140472">
<rect width="167.105" height="167.105" fill="white"/>
</clipPath>
<clipPath id="clip1_24088_140472">
<rect width="134.493" height="131.131" fill="white" transform="translate(16.8086 18.4932)"/>
</clipPath>
</defs>
</svg>
