<svg width="168" height="168" viewBox="0 0 168 168" fill="none" xmlns="http://www.w3.org/2000/svg">
<g clip-path="url(#clip0_24088_140405)">
<rect opacity="0.0229128" x="0.835524" y="0.835524" width="165.434" height="165.434" stroke="#2B2B2B" stroke-width="1.67105"/>
<g clip-path="url(#clip1_24088_140405)">
<path fill-rule="evenodd" clip-rule="evenodd" d="M55.9705 57.3684C69.9433 57.379 81.2602 68.6408 81.2495 82.5237C81.2389 96.4066 69.9042 107.651 55.9314 107.64C41.9586 107.629 30.6417 96.3677 30.6524 82.4848C30.663 68.6019 41.9977 57.3578 55.9705 57.3684Z" fill="#F9C900"/>
<path fill-rule="evenodd" clip-rule="evenodd" d="M49.9421 116.029C49.9421 116.332 49.903 116.636 49.8212 116.944L45.6223 132.462C45.1138 134.341 43.169 135.454 41.2775 134.949C39.3825 134.444 38.2625 132.511 38.771 130.632L42.9699 115.114C43.4783 113.234 45.4232 112.122 47.3146 112.623C48.9004 113.047 49.9421 114.474 49.9421 116.029Z" fill="#F9C900"/>
<path fill-rule="evenodd" clip-rule="evenodd" d="M32.3626 109.658C32.3626 110.608 31.9786 111.555 31.2177 112.247L19.3248 123.138C17.8849 124.456 15.6414 124.364 14.3152 122.933C12.9855 121.503 13.078 119.274 14.5179 117.953L26.4108 107.065C27.8543 105.748 30.0978 105.836 31.4239 107.27C32.0532 107.945 32.3626 108.803 32.3626 109.658Z" fill="#F9C900"/>
<mask id="mask0_24088_140405" style="mask-type:luminance" maskUnits="userSpaceOnUse" x="0" y="89" width="23" height="12">
<path fill-rule="evenodd" clip-rule="evenodd" d="M0 89.0183V100.09H22.7529V89.0183L0 89.0183L0 89.0183Z" fill="white"/>
</mask>
<g mask="url(#mask0_24088_140405)">
<path fill-rule="evenodd" clip-rule="evenodd" d="M22.7535 92.5476C22.7535 94.116 21.6905 95.5432 20.0941 95.953L4.43601 99.9765C2.54097 100.464 0.603263 99.3301 0.112615 97.4472C-0.374478 95.5644 0.763257 93.6391 2.66185 93.1517L18.3199 89.1316C20.215 88.6441 22.1491 89.7745 22.6398 91.6609C22.718 91.9577 22.7535 92.2544 22.7535 92.5476Z" fill="#F9C900"/>
</g>
<path fill-rule="evenodd" clip-rule="evenodd" d="M23.253 72.8054C23.253 73.0951 23.2174 73.3883 23.1392 73.685C22.6521 75.5679 20.718 76.7018 18.8229 76.2178L3.15773 72.2119C1.26269 71.728 0.121396 69.8027 0.608489 67.9199C1.09558 66.0371 3.02973 64.9031 4.92833 65.3871L20.59 69.393C22.1899 69.8027 23.253 71.2334 23.253 72.8054Z" fill="#F9C900"/>
<path fill-rule="evenodd" clip-rule="evenodd" d="M32.2758 55.6458C32.2758 56.5289 31.9451 57.4121 31.2767 58.0939C29.915 59.4927 27.6679 59.5281 26.26 58.1751L14.6444 46.9946C13.2365 45.6416 13.2009 43.4126 14.5627 42.0137C15.9244 40.6148 18.1714 40.5795 19.5794 41.9325L31.1949 53.1094C31.9167 53.8018 32.2758 54.7238 32.2758 55.6458Z" fill="#F9C900"/>
<path fill-rule="evenodd" clip-rule="evenodd" d="M48.7565 45.8468C48.7565 47.4223 47.6828 48.8565 46.0757 49.2592C44.1771 49.7361 42.2465 48.5915 41.7701 46.7016L37.8165 31.1196C37.34 29.2297 38.492 27.3185 40.3906 26.8417C42.2892 26.3683 44.2198 27.5128 44.6962 29.3992L48.6498 44.9813C48.7209 45.2709 48.7565 45.5606 48.7565 45.8468Z" fill="#F9C900"/>
<path fill-rule="evenodd" clip-rule="evenodd" d="M72.4976 31.4135C72.4976 31.7102 72.4584 32.0105 72.3802 32.3108L68.2702 47.8505C67.7724 49.7333 65.8311 50.8566 63.9361 50.3621C62.0446 49.8675 60.9104 47.9388 61.4082 46.0595L65.5183 30.5162C66.016 28.6369 67.9573 27.51 69.8523 28.0046C71.4451 28.4214 72.4976 29.8486 72.4976 31.4135Z" fill="#F9C900"/>
<path fill-rule="evenodd" clip-rule="evenodd" d="M98.2178 44.8315C98.2178 45.8136 97.8053 46.7921 96.9983 47.488L84.7961 58.0362C83.3206 59.3114 81.0771 59.156 79.7936 57.69C78.5065 56.2205 78.663 53.995 80.142 52.7162L92.3442 42.1715C93.8197 40.8927 96.0596 41.0482 97.3467 42.5177C97.9333 43.1854 98.2178 44.012 98.2178 44.8315Z" fill="#F9C900"/>
<path fill-rule="evenodd" clip-rule="evenodd" d="M110.798 68.3503C110.798 69.8976 109.763 71.3141 108.188 71.7451L92.5941 75.9947C90.7026 76.5105 88.7507 75.4083 88.2352 73.529C87.7161 71.6497 88.8254 69.7139 90.7169 69.1981L106.311 64.9485C108.202 64.4327 110.151 65.5349 110.67 67.4142C110.755 67.7251 110.798 68.0395 110.798 68.3503Z" fill="#F9C900"/>
<path fill-rule="evenodd" clip-rule="evenodd" d="M110.526 95.8242C110.526 96.1139 110.49 96.4071 110.412 96.7038C109.925 98.5867 107.991 99.7206 106.096 99.2366L90.4304 95.2307C88.5354 94.7468 87.3905 92.8251 87.8812 90.9387C88.3683 89.0558 90.3024 87.9219 92.201 88.4059L107.863 92.4118C109.463 92.8215 110.526 94.2522 110.526 95.8242Z" fill="#F9C900"/>
<path fill-rule="evenodd" clip-rule="evenodd" d="M97.2808 120.02C97.2808 120.935 96.9253 121.847 96.2142 122.535C94.8134 123.899 92.5663 123.874 91.1975 122.482L79.8913 110.991C78.5224 109.599 78.5473 107.37 79.9482 106.01C81.349 104.647 83.596 104.671 84.9649 106.063L96.2711 117.555C96.9466 118.24 97.2808 119.13 97.2808 120.02Z" fill="#F9C900"/>
<path fill-rule="evenodd" clip-rule="evenodd" d="M72.859 133.017C72.859 134.571 71.8173 135.991 70.2351 136.415C68.3436 136.92 66.3953 135.807 65.8868 133.928L61.6772 118.413C61.1688 116.534 62.2888 114.601 64.1802 114.093C66.0717 113.588 68.0201 114.7 68.5285 116.58L72.7346 132.095C72.8199 132.402 72.859 132.713 72.859 133.017Z" fill="#F9C900"/>
<path fill-rule="evenodd" clip-rule="evenodd" d="M50.7863 96.2495C39.4765 96.2495 30.2715 105.484 30.2715 116.837C30.2715 128.184 39.4765 137.421 50.7863 137.421H139.981C154.181 137.421 165.729 125.828 165.729 111.577C165.729 97.327 154.181 85.7331 139.981 85.7331C137.339 85.7331 134.712 86.1429 132.181 86.9448L130.531 87.4712L129.948 85.8321C124.497 70.4514 109.927 60.1187 93.6966 60.1187C73.8538 60.1187 57.3851 75.0401 55.387 94.8259L55.2021 96.6593L53.3817 96.4332C52.372 96.3061 51.5471 96.2495 50.7863 96.2495Z" fill="#EDF3F9"/>
</g>
</g>
<defs>
<clipPath id="clip0_24088_140405">
<rect width="167.105" height="167.105" fill="white"/>
</clipPath>
<clipPath id="clip1_24088_140405">
<rect width="167.105" height="111.96" fill="white" transform="translate(0 26.7366)"/>
</clipPath>
</defs>
</svg>
