<svg width="168" height="168" viewBox="0 0 168 168" fill="none" xmlns="http://www.w3.org/2000/svg">
<g clip-path="url(#clip0_24088_140345)">
<rect opacity="0.0229128" x="0.835524" y="0.835524" width="165.434" height="165.434" stroke="#2B2B2B" stroke-width="1.67105"/>
<g clip-path="url(#clip1_24088_140345)">
<path fill-rule="evenodd" clip-rule="evenodd" d="M85.6419 88.4124C102.717 88.4256 116.547 102.274 116.534 119.345C116.521 136.416 102.669 150.242 85.5935 150.229C68.5182 150.216 54.688 136.367 54.7012 119.296C54.7144 102.226 68.5666 88.3992 85.6419 88.4124Z" fill="#F9C900"/>
<path fill-rule="evenodd" clip-rule="evenodd" d="M45.0446 131.674C45.0446 133.602 43.7456 135.358 41.795 135.864L22.6591 140.808C20.3386 141.406 17.9741 140.015 17.3753 137.695C16.7765 135.38 18.1679 133.016 20.4883 132.418L39.6243 127.47C41.9403 126.871 44.3048 128.266 44.9037 130.582C45.0005 130.947 45.0446 131.313 45.0446 131.674Z" fill="#F9C900"/>
<path fill-rule="evenodd" clip-rule="evenodd" d="M45.6541 107.395C45.6541 107.752 45.6101 108.113 45.5176 108.474C44.9188 110.794 42.5543 112.189 40.2383 111.59L21.0979 106.665C18.7775 106.07 17.3817 103.706 17.9805 101.391C18.5749 99.0712 20.9394 97.6757 23.2598 98.2744L42.4002 103.2C44.3552 103.702 45.6541 105.463 45.6541 107.395Z" fill="#F9C900"/>
<path fill-rule="evenodd" clip-rule="evenodd" d="M56.688 86.2952C56.688 87.3781 56.2829 88.4654 55.4683 89.3061C53.8039 91.0229 51.0564 91.0713 49.3392 89.403L35.1391 75.6601C33.4219 73.9961 33.3734 71.2493 35.0422 69.5325C36.7066 67.8114 39.4497 67.7674 41.1714 69.4313L55.367 83.1786C56.2477 84.0282 56.688 85.1595 56.688 86.2952Z" fill="#F9C900"/>
<path fill-rule="evenodd" clip-rule="evenodd" d="M137.276 72.9965C137.276 74.207 136.77 75.4088 135.788 76.2628L120.874 89.2353C119.069 90.8024 116.33 90.6131 114.758 88.8083C113.187 87.0035 113.376 84.2655 115.186 82.694L130.095 69.7258C131.904 68.1543 134.639 68.3436 136.21 70.1484C136.928 70.9716 137.276 71.9885 137.276 72.9965Z" fill="#F9C900"/>
<path fill-rule="evenodd" clip-rule="evenodd" d="M152.639 101.918C152.639 103.819 151.375 105.562 149.451 106.091L130.39 111.32C128.082 111.954 125.696 110.594 125.062 108.287C124.428 105.976 125.788 103.595 128.096 102.961L147.157 97.7312C149.464 97.1018 151.851 98.4576 152.485 100.764C152.59 101.152 152.639 101.539 152.639 101.918Z" fill="#F9C900"/>
<path fill-rule="evenodd" clip-rule="evenodd" d="M152.318 135.704C152.318 136.061 152.274 136.422 152.182 136.783C151.583 139.102 149.218 140.498 146.902 139.899L127.762 134.973C125.442 134.379 124.046 132.015 124.645 129.7C125.239 127.38 127.603 125.985 129.924 126.583L149.064 131.509C151.019 132.011 152.318 133.772 152.318 135.704Z" fill="#F9C900"/>
</g>
<path fill-rule="evenodd" clip-rule="evenodd" d="M152.159 139.445H18.4288C16.1843 139.445 14.3672 137.602 14.3672 135.327C14.3672 133.051 16.1843 131.208 18.4288 131.208H152.159C154.404 131.208 156.221 133.051 156.221 135.327C156.221 137.602 154.404 139.445 152.159 139.445Z" fill="#EDF3F9"/>
<path d="M62.6562 46.5876L85.3233 69.2546M85.3233 69.2546L107.99 46.5876M85.3233 69.2546V28.0418" stroke="#EDF3F9" stroke-width="8.24257" stroke-linecap="round" stroke-linejoin="round"/>
</g>
<defs>
<clipPath id="clip0_24088_140345">
<rect width="167.105" height="167.105" fill="white"/>
</clipPath>
<clipPath id="clip1_24088_140345">
<rect width="140.124" height="78.3044" fill="white" transform="translate(15.2637 50.709)"/>
</clipPath>
</defs>
</svg>
